<svg xmlns="http://www.w3.org/2000/svg" width="728" height="758" overflow="hidden"><defs><clipPath id="a"><path d="M14-1h728v758H14z"/></clipPath><clipPath id="b"><path d="M373 90h113v112H373z"/></clipPath><clipPath id="c"><path d="M373 90h113v112H373z"/></clipPath><clipPath id="d"><path d="M373 90h113v112H373z"/></clipPath><radialGradient id="e" cx="572.637" cy="-20.3905" r="11.1973" gradientTransform="translate(-2652.2 156.097) scale(4.73246)" gradientUnits="userSpaceOnUse" spreadMethod="pad"><stop offset="0" stop-color="#FDE9F1"/><stop offset="0.005618" stop-color="#FDE9F1"/><stop offset="0.00862616" stop-color="#FDE8F0"/><stop offset="0.4483" stop-color="#F9B08D"/><stop offset="0.752" stop-color="#F68F5A"/><stop offset="0.8933" stop-color="#F58345"/><stop offset="1" stop-color="#F58345"/></radialGradient></defs><g clip-path="url(#a)" transform="translate(-14 1)"><path fill="#0060AF" fill-rule="evenodd" d="M545.405 7.8c91.03 42.047 88.422 241.793-5.886 446.284-94.442 204.425-244.8 336.051-335.898 294.136-91.097-42.048-88.422-241.793 5.886-446.218C303.815 97.511 454.24-34.182 545.405 7.799Z"/><path fill="#F58345" fill-rule="evenodd" d="M375.26 153c-33.222 17.752-71.647 39.042-109.005 64.468a1170.53 1170.53 0 0 0-23.016 16.151C119.824 323.181 28.364 435.299 16.356 524.928c-4.537 34.103 2.334 63.934 20.28 84.89 21.214 24.693 60.973 38.574 105.403 38.174a227.615 227.615 0 0 1-2.201-14.015c-35.224-3.137-68.446-15.35-85.124-38.307-12.074-16.685-18.278-38.775-14.81-67.405 5.004-40.376 29.753-90.63 69.113-140.616 29.82-37.84 68.112-75.814 111.407-110.784 19.08-15.35 39.026-30.099 59.773-44.047 36.424-24.493 84.056-50.654 104.803-60.064L375.26 153Z"/><path fill="#00B6BE" fill-rule="evenodd" d="M721.917 144.353C697.07 112.379 657.33 100.94 605.433 99c.735 3.545 1.336 6.957 1.937 10.636 47.222 3.746 80.684 21.205 97.582 47.026 8.282 12.643 13.425 32.911 11.154 53.247-6.145 54.718-55.904 132.983-170.183 226.098-20.906 16.991-39.607 31.64-64.854 49.567-7.08 4.616-14.093 4.081-15.562 3.947-29.455-.669-113.011 5.753-188.351 93.048 0 0-27.117 32.644-48.156 29.165 0 0 89.366 29.166 178.666-22.074 0 0 58.709-33.714 79.881-72.913 0 0-37.002 26.69-79.881 50.704 0 0-57.04 32.577-89.834 32.176 0 0 60.846-12.71 172.12-90.975 10.753-7.625 22.375-15.652 32.394-23.345 126.635-96.058 206.116-195.93 217.671-274.061 4.008-26.891-4.675-49.701-18.1-66.893Z"/><path fill="#FFF" fill-rule="evenodd" d="M400 293h15v64h-15ZM497 293h16v99h-16ZM308.013 340.233c5.018-5.218 8.162-12.175 8.162-19.934 0-16.121-13.381-29.299-29.841-29.299-16.459 0-29.84 13.178-29.84 29.299 0 7.759 3.144 14.783 8.229 20.001v15.117H249V370h74v-14.583h-14.921v-15.184Zm-21.745-32.844c7.025 0 12.712 5.819 12.712 12.977 0 7.157-5.687 12.977-12.712 12.977-7.026 0-12.713-5.82-12.713-12.977 0-7.158 5.687-12.977 12.713-12.977Zm-5.821 48.028v-6.488c1.873.334 3.813.602 5.821.602 2.007 0 4.014-.201 5.887-.602v6.555h-11.708ZM356.009 356v27.767s-.6 9.233 8.123 9.233H415v-14.528h-43.211V356h-15.78ZM484.021 351.933 490 338.725s-20.529-3.956-19.931-32.182V293h-18.204v13.61c.664 28.226-19.865 32.182-19.865 32.182L438.046 352c17.539-4.492 22.921-17.968 22.921-17.968s4.983 13.409 23.054 17.901ZM355.77 418.8l-3.513-7.8H348l5.743 11.533V428h3.581v-5.467L363 411h-3.716ZM373.033 411c-2.677 0-4.686.815-6.092 2.581-1.272 1.562-1.941 3.736-1.941 6.453 0 2.649.736 4.755 1.941 6.317 1.406 1.766 3.415 2.649 6.092 2.649 2.611 0 4.62-.883 6.026-2.649 1.272-1.562 1.941-3.668 1.941-6.317 0-2.717-.602-4.823-1.941-6.453-1.406-1.766-3.415-2.581-6.026-2.581Zm0 15.283c-2.811 0-4.217-2.174-4.217-6.317 0-4.211 1.406-6.385 4.217-6.385 2.812 0 4.151 2.174 4.151 6.385s-1.339 6.317-4.151 6.317ZM396.719 424.267v.066L390.357 411H385v17h3.415V413.867L394.978 428H400v-17h-3.281ZM412.684 413.659c2.256 0 3.419 1.023 3.419 3H420c0-3.75-2.666-5.659-8-5.659-2.12 0-3.829.614-5.265 1.841-1.846 1.636-2.735 4.023-2.735 7.159 0 3.068.957 5.455 2.735 7.023 1.436 1.295 3.214 1.977 5.265 1.977a38.73 38.73 0 0 0 3.966-.204 13.645 13.645 0 0 0 3.761-.75v-8.66h-6.975v2.932h3.419v3.614c-1.299.273-2.461.409-3.419.409-1.641 0-2.803-.613-3.692-1.704-.752-1.091-1.162-2.66-1.162-4.637 0-2.045.41-3.614 1.23-4.704.752-1.091 1.915-1.637 3.556-1.637ZM424 411h4v17h-4ZM443.585 424.267v.066L437.223 411H432v17h3.281v-14.067l.067-.066 6.63 14.133H447v-17h-3.415ZM464.933 413.581c1.077 0 1.817.34 2.423.951.538.611.807 1.427.807 2.378H472c-.067-2.106-.74-3.668-2.087-4.619-1.211-.883-2.826-1.291-4.913-1.291-2.288 0-4.106.815-5.317 2.581-1.077 1.63-1.683 3.736-1.683 6.453 0 2.649.538 4.755 1.683 6.317 1.279 1.766 3.029 2.649 5.317 2.649 2.087 0 3.702-.543 4.913-1.426 1.347-.951 2.02-2.514 2.087-4.551h-3.837c0 .951-.269 1.698-.74 2.309-.606.679-1.413 1.019-2.423 1.019-1.144 0-1.952-.815-2.558-2.309-.471-1.155-.673-2.514-.673-4.076 0-1.63.202-2.989.673-4.075.539-1.495 1.414-2.31 2.491-2.31ZM475 411h4v17h-4ZM482 413.8h4.762V428h3.411v-14.2H495V411h-13ZM504.67 418.8l-3.462-7.8H497l5.634 11.533V428h3.597v-5.467L512 411h-3.733ZM287.033 372C270.482 372 257 385.415 257 402.033 257 418.652 270.415 432 287.033 432 303.585 432 317 418.652 317 402.033 317 385.482 303.585 372 287.033 372Zm0 42.38c-6.674 0-12.146-5.472-12.146-12.213 0-6.874 5.406-12.347 12.146-12.347 6.674 0 12.08 5.473 12.08 12.347 0 6.741-5.406 12.213-12.08 12.213ZM392 320.034c0-15.5-12.489-28.034-28-28.034-15.444 0-28 12.534-28 28.034C336 335.533 348.556 348 364 348c15.444-.067 28-12.534 28-27.966Zm-40.019 0c0-6.672 5.372-12.13 12.019-12.13 6.648 0 12.086 5.458 12.086 12.13 0 6.739-5.438 12.197-12.086 12.197-6.647-.067-12.019-5.526-12.019-12.197Z"/><g clip-path="url(#b)"><g clip-path="url(#c)"><g clip-path="url(#d)"><path fill="url(#e)" d="M0 55.938C0 25.061 25.06 0 56 0c30.877 0 56 25.06 56 55.938C112 86.878 86.94 112 56 112S0 86.877 0 55.938Z" transform="matrix(1.00893 0 0 1 373.031 90)"/></g></g></g></g></svg>